<?xml version="1.0" encoding="UTF-8" standalone="no"?>
<svg
   version="1.1"
   id="Layer_1"
   x="0px"
   y="0px"
   width="100%"
   viewBox="0 0 1242 678"
   enable-background="new 0 0 1242 678"
   xml:space="preserve"
   sodipodi:docname="Logo_VIU.svg"
   inkscape:export-filename="Logo_VIU.svg"
   inkscape:export-xdpi="96"
   inkscape:export-ydpi="96"
   inkscape:version="1.4 (e7c3feb100, 2024-10-09)"
   xmlns:inkscape="http://www.inkscape.org/namespaces/inkscape"
   xmlns:sodipodi="http://sodipodi.sourceforge.net/DTD/sodipodi-0.dtd"
   xmlns="http://www.w3.org/2000/svg"
   xmlns:svg="http://www.w3.org/2000/svg"><defs
   id="defs56" /><sodipodi:namedview
   id="namedview56"
   pagecolor="#ffffff"
   bordercolor="#000000"
   borderopacity="0.25"
   inkscape:showpageshadow="2"
   inkscape:pageopacity="0.0"
   inkscape:pagecheckerboard="0"
   inkscape:deskcolor="#d1d1d1"
   inkscape:zoom="1.1917404"
   inkscape:cx="826.10272"
   inkscape:cy="300.40099"
   inkscape:window-width="1882"
   inkscape:window-height="1017"
   inkscape:window-x="1936"
   inkscape:window-y="1124"
   inkscape:window-maximized="1"
   inkscape:current-layer="Layer_1" />

<path
   fill="#E65115"
   opacity="1.000000"
   stroke="none"
   d=" M513.952026,300.086426   C514.691650,352.392670 496.638885,396.551819 459.942078,433.123901   C437.750885,455.239716 415.599457,477.395416 393.417389,499.520416   C356.302826,536.539490 311.480743,554.256592 259.136414,552.913879   C178.669296,550.849792 106.197517,489.067352 92.125427,409.900238   C81.049080,347.586700 97.953514,293.586639 142.497467,248.497971   C164.984009,225.736435 187.687103,203.187271 210.419647,180.670654   C245.623108,145.801468 288.171600,128.261200 337.626160,128.226135   C422.691681,128.165848 496.462616,190.431229 511.089050,274.311951   C512.543457,282.652863 513.011719,291.165710 513.952026,300.086426  M423.974060,330.500000   C423.974060,319.692017 423.974060,308.884003 423.974060,297.817261   C417.185974,297.817261 410.759308,297.817261 403.995453,297.817261   C403.995453,299.886444 403.998718,301.699585 403.994934,303.512726   C403.957428,321.510101 403.966675,339.507904 403.814178,357.504333   C403.796906,359.543213 403.521149,362.245575 402.244171,363.489197   C397.530121,368.080048 392.944458,373.383667 387.223602,376.249725   C370.747284,384.504150 356.317291,375.173279 356.245361,356.901917   C356.175171,339.071106 356.229492,321.239838 356.229156,303.408752   C356.229126,301.614441 356.229156,299.820129 356.229156,298.000610   C349.345795,298.000610 342.974152,298.000610 336.506470,298.000610   C336.506470,320.931854 335.881897,343.439423 336.671631,365.897217   C337.568756,391.409149 357.222931,398.211823 376.083618,395.498169   C386.983429,393.929962 395.872131,388.305817 403.971558,379.396881   C403.971558,384.849731 403.971558,389.224670 403.971558,393.703247   C410.869293,393.703247 417.257965,393.703247 423.974060,393.703247   C423.974060,372.769104 423.974060,352.134552 423.974060,330.500000  M299.469238,297.554596   C281.662872,297.554596 263.856506,297.554596 246.050140,297.554596   C245.984238,298.101990 245.918350,298.649353 245.852448,299.196747   C249.716522,300.248169 253.580597,301.299591 257.824005,302.454254   C248.102676,327.741638 238.514160,352.683594 228.567902,378.556091   C217.978622,352.534973 207.840942,327.623566 197.600861,302.460571   C202.090210,301.277679 206.174545,300.201508 210.258881,299.125336   C210.164246,298.783356 210.069595,298.441345 209.974960,298.099365   C195.763947,298.099365 181.552948,298.099365 167.341949,298.099365   C168.548386,299.527496 169.873245,300.224182 171.246460,300.338196   C176.978043,300.814026 179.427460,304.289276 181.518585,309.371124   C192.840042,336.884369 204.580338,364.225037 216.110260,391.652985   C217.267090,394.404877 218.284409,396.230286 222.006699,396.309998   C226.402802,396.404144 228.303940,394.974945 229.852859,390.914642   C240.752518,362.342316 251.903214,333.865479 263.080688,305.400116   C263.718445,303.776001 265.246948,301.333984 266.444244,301.284363   C275.028564,300.928619 283.634460,301.094147 292.162201,301.094147   C292.431152,302.146912 292.655396,302.615906 292.655884,303.085052   C292.683624,330.738617 292.738464,358.392517 292.561340,386.044861   C292.552979,387.346649 290.701782,389.295258 289.298584,389.798279   C285.936279,391.003540 282.329285,391.526245 278.821075,392.324463   C278.918854,392.795349 279.016663,393.266266 279.114441,393.737152   C294.326050,393.737152 309.537628,393.737152 324.749237,393.737152   C324.826752,393.336548 324.904236,392.935974 324.981750,392.535370   C320.366058,391.348053 315.750397,390.160706 310.811432,388.890228   C310.811432,358.384521 310.811432,328.149231 310.811432,297.555023   C307.076569,297.555023 303.766357,297.555023 299.469238,297.554596  M293.495941,258.105072   C290.320679,262.279205 289.896240,266.685211 292.872131,271.053741   C295.433868,274.814331 299.189240,276.499603 303.708740,275.536102   C308.145508,274.590210 311.165192,271.826019 312.022217,267.262543   C312.901398,262.580933 311.465424,258.587524 307.303436,256.064392   C302.602997,253.214844 298.095917,253.898254 293.495941,258.105072  z"
   id="path2" />
<path
   fill="#090909"
   opacity="1.000000"
   stroke="none"
   d=" M1109.536987,254.000275   C1109.536987,264.458588 1109.536987,274.416901 1109.536987,284.694946   C1106.016724,284.694946 1102.776611,284.694946 1099.131958,284.694946   C1098.891968,283.775238 1098.583862,282.594971 1098.269897,281.391876   C1083.557495,289.538544 1071.469360,287.561035 1063.763550,272.038483   C1058.907227,262.255737 1061.806030,249.086182 1069.044434,242.495773   C1076.513184,235.695587 1086.353882,235.201202 1098.326172,241.396347   C1098.326172,232.956863 1098.326172,224.820969 1098.326172,216.420319   C1102.220093,216.420319 1105.473633,216.420319 1109.536987,216.420319   C1109.536987,228.729401 1109.536987,241.114838 1109.536987,254.000275  M1087.288574,276.471252   C1092.005981,275.789795 1096.227051,273.832092 1097.669678,269.145996   C1098.758179,265.610413 1098.757812,261.611664 1098.598022,257.846436   C1098.267944,250.063660 1090.812744,244.705353 1083.207153,246.440521   C1075.927979,248.101196 1072.238525,253.803619 1072.662720,262.738159   C1073.071289,271.341217 1077.248291,275.541321 1087.288574,276.471252  z"
   id="path3" />
<path
   fill="#060606"
   opacity="1.000000"
   stroke="none"
   d=" M999.899292,232.003967   C999.899292,249.805359 999.899292,267.107788 999.899292,284.709778   C996.369995,284.709778 993.105225,284.709778 989.355103,284.709778   C989.162842,283.722290 988.911011,282.429016 988.648010,281.078461   C976.307739,288.350342 965.753723,287.440948 957.980957,278.550293   C950.222412,269.675964 949.948975,253.887497 957.395264,244.729706   C964.595276,235.874786 976.407166,234.601624 988.878906,241.606613   C988.878906,233.175568 988.878906,224.957397 988.878906,216.448334   C992.657654,216.448334 996.036560,216.448334 999.899292,216.448334   C999.899292,221.592117 999.899292,226.548569 999.899292,232.003967  M972.498169,246.741943   C963.781433,248.876495 961.191040,258.470825 963.619507,267.127747   C965.650269,274.366730 972.360046,277.898407 979.618591,276.065247   C987.408020,274.098053 990.755371,266.836609 988.785706,256.179321   C987.534241,249.408218 981.374146,245.564865 972.498169,246.741943  z"
   id="path4" />
<path
   fill="#050505"
   opacity="1.000000"
   stroke="none"
   d=" M641.138184,261.653748   C641.149170,249.387466 641.149170,237.581345 641.149170,225.397980   C645.049133,225.397980 648.759216,225.397980 652.790466,225.397980   C652.790466,238.701004 653.685791,252.193665 652.540771,265.510895   C651.376282,279.054230 640.375549,286.651978 625.851013,285.958374   C612.234314,285.308105 602.812500,276.609955 602.230774,263.062012   C601.696533,250.619659 602.117310,238.136307 602.117310,225.346069   C606.006409,225.346069 609.725159,225.346069 613.990356,225.346069   C613.990356,237.430115 613.838318,249.528122 614.035217,261.620453   C614.215210,272.681030 624.773254,278.754547 634.581970,273.640137   C639.228027,271.217590 640.859558,267.043213 641.138184,261.653748  z"
   id="path5" />
<path
   fill="#050505"
   opacity="1.000000"
   stroke="none"
   d=" M805.555481,271.076782   C813.284973,279.526459 822.864685,278.452484 829.437805,268.566742   C832.295837,268.729950 835.266174,268.899567 838.243713,269.069580   C837.125427,279.894165 826.497986,287.113953 813.644226,285.918091   C800.027161,284.651215 791.477844,273.078644 793.023315,258.004730   C794.355530,245.009598 805.898865,235.833374 819.398987,237.037445   C832.426453,238.199371 840.658997,249.179550 839.378052,264.240479   C827.685242,264.240479 815.934814,264.240479 803.248108,264.240479   C804.083130,266.890900 804.693665,268.828827 805.555481,271.076782  M827.081909,250.589157   C822.914978,245.598434 817.551392,244.841324 811.765686,246.708130   C807.205383,248.179535 804.549683,251.495819 803.819580,256.269714   C812.518188,256.269714 820.706787,256.269714 829.570984,256.269714   C828.735657,254.172729 828.143066,252.684952 827.081909,250.589157  z"
   id="path6" />
<path
   fill="#080808"
   opacity="1.000000"
   stroke="none"
   d=" M1039.461670,255.572906   C1040.791992,251.518463 1040.004639,248.296417 1036.149170,246.635269   C1032.084595,244.884033 1026.957520,244.289185 1024.772217,248.189667   C1021.568909,253.907028 1017.324463,251.992828 1012.530273,251.963745   C1012.711670,250.830582 1012.744995,249.896988 1013.016479,249.038757   C1015.810364,240.205460 1025.192383,235.372360 1036.147705,237.086441   C1045.542236,238.556320 1050.745239,244.588730 1050.844604,254.220322   C1050.899658,259.545502 1050.984131,264.875763 1050.814697,270.196106   C1050.680786,274.403381 1051.303955,277.680298 1056.764404,276.903656   C1056.764404,279.554138 1056.764404,281.852570 1056.764404,284.088348   C1049.628296,287.273529 1043.439453,284.876984 1041.166260,280.258087   C1035.871582,282.197876 1030.845459,285.004425 1025.529053,285.755280   C1018.012573,286.816895 1012.024170,281.772095 1010.552002,274.787750   C1009.092407,267.863068 1012.197571,261.339966 1019.517822,259.059601   C1025.767944,257.112610 1032.533447,256.820496 1039.461670,255.572906  M1039.159912,271.155396   C1039.566895,268.579620 1039.973999,266.003815 1040.434082,263.091553   C1034.981812,263.824463 1030.518433,264.178741 1026.170166,265.084930   C1022.542175,265.840973 1020.360413,268.313263 1020.918945,272.266357   C1021.474609,276.198975 1024.579590,277.745789 1027.791504,276.875763   C1031.596558,275.845062 1035.053101,273.526917 1039.159912,271.155396  z"
   id="path7" />
<path
   fill="#060606"
   opacity="1.000000"
   stroke="none"
   d=" M698.125732,253.550034   C695.981079,247.033142 691.253235,244.935089 685.166626,247.374863   C679.616516,249.599579 677.047180,253.458801 677.046631,259.575439   C677.045898,267.876129 677.046448,276.176819 677.046448,284.743652   C673.394653,284.743652 670.014954,284.743652 666.455505,284.743652   C666.455505,269.127594 666.455505,253.728867 666.455505,238.122864   C669.976196,238.122864 673.249756,238.122864 676.909180,238.122864   C676.997681,239.682480 677.085327,241.228897 677.107849,241.625717   C682.925598,240.032806 688.590637,237.599884 694.422363,237.096085   C702.719849,236.379242 708.993896,242.960144 709.084290,251.294388   C709.203491,262.285339 709.113586,273.278564 709.113586,284.641663   C705.629456,284.641663 702.236206,284.641663 698.170227,284.641663   C698.170227,274.521393 698.170227,264.257751 698.125732,253.550034  z"
   id="path8" />
<path
   fill="#070707"
   opacity="1.000000"
   stroke="none"
   d=" M908.222900,249.060715   C905.110291,245.223129 901.441650,244.224686 897.320923,245.964600   C896.005371,246.520111 894.382812,248.078812 894.280823,249.294235   C894.177856,250.522797 895.492798,252.521255 896.699341,253.084930   C900.131775,254.688431 903.778809,255.891586 907.425659,256.965942   C917.249268,259.859894 921.736450,264.826630 920.910950,272.169983   C920.008423,280.198700 913.092834,285.653839 903.411682,285.973938   C893.042847,286.316772 884.979248,281.154510 882.937866,272.838715   C882.790100,272.236633 882.846985,271.584320 882.788757,270.625214   C885.689331,270.095337 888.413025,269.597778 891.095032,269.107819   C895.141602,275.834351 899.345337,278.394867 905.007751,276.651520   C907.170654,275.985626 909.695435,273.769379 910.292542,271.740814   C910.665039,270.475555 908.103027,267.460144 906.226929,266.588745   C901.004578,264.163116 895.052917,263.140167 890.119873,260.296173   C881.625183,255.398895 882.398438,243.816895 891.140015,239.287369   C893.028931,238.308578 895.160828,237.644073 897.258789,237.249222   C908.042725,235.219574 916.600952,240.464737 919.065918,251.157013   C915.384949,250.220825 911.390625,255.451401 908.222900,249.060715  z"
   id="path9" />
<path
   fill="#060606"
   opacity="1.000000"
   stroke="none"
   d=" M780.548828,259.661316   C777.223083,268.222443 774.083374,276.441711 770.995605,284.524994   C770.498657,284.730347 770.211670,284.947235 769.918457,284.955902   C758.977966,285.279053 758.987000,285.272980 755.027466,274.978149   C750.330200,262.765045 745.615234,250.558807 740.895508,238.317245   C741.575806,238.124420 741.891296,237.968536 742.213379,237.953339   C752.268616,237.478851 752.319153,237.462585 755.754150,246.880524   C758.874146,255.434891 761.868103,264.035217 764.712036,272.036957   C768.586975,261.278503 772.726685,249.784851 776.915466,238.155121   C780.886780,238.155121 784.630615,238.155121 788.744019,238.155121   C786.013184,245.371307 783.373962,252.345383 780.548828,259.661316  z"
   id="path10" />
<path
   fill="#0D0D0D"
   opacity="1.000000"
   stroke="none"
   d=" M639.870056,417.000061   C639.870056,428.475769 639.870056,439.451447 639.870056,450.510468   C642.218445,451.192078 644.339478,451.807678 646.460449,452.423279   C646.422058,452.721985 646.383667,453.020721 646.345276,453.319427   C642.679993,453.319427 639.014771,453.319427 634.821838,453.319427   C634.509338,451.901398 634.104797,450.065979 633.833862,448.836700   C629.682983,450.698761 625.714539,453.245178 621.387024,454.259338   C612.611511,456.315887 604.114502,451.710785 601.828552,442.985931   C600.232422,436.893707 599.565247,430.027496 600.625732,423.876404   C603.104004,409.502197 614.677734,402.774048 628.846924,406.284271   C630.126770,406.601318 631.384644,407.006744 633.129517,407.508148   C633.129517,401.381866 633.129517,395.527863 633.129517,389.095734   C631.325684,388.691620 629.125671,388.198761 626.925659,387.705902   C626.874878,387.344696 626.824158,386.983490 626.773376,386.622314   C630.973999,385.942139 635.174561,385.261993 639.870056,384.501709   C639.870056,395.595001 639.870056,406.047516 639.870056,417.000061  M633.674744,435.414551   C633.674744,429.914948 633.674927,424.415344 633.674744,418.915741   C633.674438,411.782104 631.046326,408.867584 623.890320,408.064240   C616.444641,407.228394 610.120422,410.759827 608.367188,418.359924   C606.940430,424.545013 606.661560,431.208008 607.132202,437.565887   C607.779724,446.311951 613.874878,451.264404 621.690247,450.733276   C630.432190,450.139191 633.674622,446.256165 633.674744,435.414551  z"
   id="path11" />
<path
   fill="#141414"
   opacity="1.000000"
   stroke="none"
   d=" M819.634583,328.696045   C818.480042,330.250854 816.969788,331.550568 816.947083,332.875763   C816.756470,344.003174 816.838562,355.135284 816.838562,366.373932   C819.052063,367.077850 821.030823,367.707092 823.009644,368.336334   C822.983276,368.589355 822.956909,368.842377 822.930603,369.095398   C816.707886,369.095398 810.485168,369.095398 804.184448,369.095398   C804.285461,368.731964 804.347229,368.242676 804.433228,368.238403   C810.129150,367.954926 810.905884,364.574188 810.742310,359.604645   C810.382446,348.668243 810.630615,337.711792 810.630615,326.599640   C808.162659,326.158691 806.129272,325.795380 804.095886,325.432068   C804.027344,324.997253 803.958862,324.562469 803.890381,324.127686   C807.825012,323.209351 811.759644,322.291016 816.065857,321.285950   C816.313477,323.419800 816.515686,325.162720 816.721436,326.936035   C820.563232,325.169983 824.180298,322.927338 828.116760,321.811340   C838.075745,318.988007 845.528198,324.073181 846.247803,334.351898   C846.816101,342.467987 846.653381,350.647858 846.529297,358.795013   C846.455627,363.631561 845.887329,368.420776 852.911804,368.895203   C846.707764,368.895203 840.503723,368.895203 834.299744,368.895203   C834.210571,368.673859 834.121399,368.452545 834.032227,368.231201   C835.897339,367.669800 837.762512,367.108398 839.955505,366.448303   C839.955505,355.295319 840.268250,344.020935 839.817078,332.777191   C839.606628,327.531158 834.451416,324.322296 828.816833,325.329865   C825.778381,325.873169 822.912231,327.380432 819.634583,328.696045  z"
   id="path12" />
<path
   fill="#0B0B0B"
   opacity="1.000000"
   stroke="none"
   d=" M677.951416,369.328308   C671.939270,369.335938 666.334290,369.335938 660.729248,369.335938   C660.678284,368.952454 660.627319,368.568970 660.576355,368.185486   C662.530334,367.649292 664.484375,367.113098 666.811768,366.474457   C666.811768,355.641083 667.127747,344.668854 666.684021,333.727478   C666.447449,327.895966 661.675476,324.345276 655.903931,325.293823   C652.402588,325.869232 648.994873,327.489441 645.784424,329.113403   C644.592834,329.716125 643.399841,331.655396 643.373047,333.008240   C643.172058,343.164978 643.256775,353.327484 643.271057,363.488190   C643.272461,364.454254 643.404053,365.420105 643.478516,366.430695   C645.696716,367.126404 647.720032,367.761017 649.743408,368.395630   C649.728882,368.617096 649.714355,368.838562 649.699829,369.060028   C643.425720,369.060028 637.151611,369.060028 630.877563,369.060028   C630.810608,368.831146 630.743652,368.602234 630.676758,368.373352   C632.724304,367.754944 634.771851,367.136536 636.854736,366.507416   C636.854736,353.119720 636.854736,339.850739 636.854736,326.443817   C634.618652,326.066986 632.582092,325.723785 630.545593,325.380585   C630.499573,324.999420 630.453552,324.618286 630.407532,324.237152   C634.403931,323.251190 638.400269,322.265259 642.746338,321.193024   C642.909424,323.485504 643.056152,325.548462 643.172058,327.177704   C647.023499,325.353668 650.682800,322.983704 654.691772,321.846527   C664.964294,318.932709 672.716858,324.735535 672.967102,335.402222   C673.208618,345.697205 673.019409,356.002228 673.019409,366.346832   C675.286804,366.971405 677.177551,367.492249 679.068237,368.013092   C678.831726,368.448944 678.595154,368.884796 677.951416,369.328308  z"
   id="path13" />
<path
   fill="#0C0C0C"
   opacity="1.000000"
   stroke="none"
   d=" M906.070496,449.494690   C906.082886,436.402618 906.082886,423.760864 906.082886,410.876404   C903.740112,410.451172 901.643677,410.070679 899.547180,409.690155   C899.457214,409.304932 899.367249,408.919708 899.277283,408.534485   C903.347473,407.578491 907.417725,406.622467 912.012939,405.543182   C912.012939,407.985657 912.012939,409.891998 912.012939,411.631958   C916.092957,409.663177 919.709106,407.159393 923.704285,406.136932   C934.405518,403.398254 941.826782,409.283813 942.006287,420.304077   C942.168945,430.287323 942.040649,440.275299 942.040649,450.700562   C944.200989,451.305756 946.344727,451.906342 948.488464,452.506897   C948.477173,452.757111 948.465881,453.007355 948.454590,453.257568   C942.331238,453.257568 936.207825,453.257568 928.530396,453.257568   C931.759094,452.136658 933.652771,451.479248 935.880798,450.705750   C935.880798,440.189728 936.118774,429.566895 935.791138,418.961517   C935.596130,412.650238 931.501404,409.496155 925.138550,409.752838   C916.063416,410.118988 912.264648,414.086151 912.264587,423.197479   C912.264587,432.189301 912.264587,441.181122 912.264587,450.527557   C914.337158,451.216888 916.448669,451.919128 918.560181,452.621368   C918.531189,452.863678 918.502197,453.105957 918.473206,453.348236   C912.316650,453.348236 906.160095,453.348236 899.231506,453.348236   C901.972961,451.981537 904.015564,450.963287 906.070496,449.494690  z"
   id="path14" />
<path
   fill="#0A0A0A"
   opacity="1.000000"
   stroke="none"
   d=" M1067.858398,360.775543   C1067.858154,352.472717 1067.911865,344.643890 1067.840942,336.816223   C1067.781860,330.299255 1065.621460,326.970123 1060.791992,325.589294   C1056.191895,324.274109 1047.161865,327.052856 1044.825317,330.585724   C1044.403198,331.224030 1044.293701,332.103180 1044.166138,332.891541   C1044.061035,333.540894 1044.141724,334.220551 1044.141724,334.886780   C1044.141479,345.362427 1044.141602,355.838074 1044.141602,366.428833   C1046.421021,367.088928 1048.441528,367.674011 1050.461914,368.259125   C1050.445190,368.514160 1050.428589,368.769226 1050.411865,369.024292   C1044.194946,369.024292 1037.978027,369.024292 1031.761108,369.024292   C1031.684448,368.793762 1031.607910,368.563202 1031.531250,368.332672   C1033.548096,367.759613 1035.564941,367.186554 1037.799072,366.551758   C1037.799072,353.361877 1037.799072,340.083374 1037.799072,326.519440   C1035.621948,326.111786 1033.465576,325.708008 1031.309204,325.304230   C1031.285400,324.946198 1031.261597,324.588196 1031.237671,324.230164   C1035.260376,323.258881 1039.282959,322.287628 1043.674805,321.227203   C1043.837036,323.580078 1043.971313,325.526611 1044.102295,327.466858   C1047.365601,325.669922 1050.457031,323.361969 1053.931274,322.183563   C1065.406982,318.291473 1073.770020,324.439667 1073.948730,336.729279   C1074.091309,346.539551 1073.977539,356.353516 1073.977539,366.344177   C1076.340576,367.030396 1078.504761,367.658875 1080.668823,368.287323   C1080.647705,368.503540 1080.626465,368.719727 1080.605225,368.935944   C1074.264526,368.935944 1067.923706,368.935944 1061.583008,368.935944   C1061.525757,368.690674 1061.468384,368.445374 1061.411133,368.200104   C1063.353760,367.657837 1065.296387,367.115601 1067.858398,366.400421   C1067.858398,364.802124 1067.858398,363.026093 1067.858398,360.775543  z"
   id="path15" />
<path
   fill="#111111"
   opacity="1.000000"
   stroke="none"
   d=" M894.358887,360.831360   C895.360352,367.692932 897.259399,368.045013 904.162781,362.591583   C903.158325,366.755524 901.234985,369.301758 897.461487,369.970978   C892.664795,370.821655 889.416382,368.785858 888.073730,363.597687   C883.176453,368.336578 878.073486,370.991089 871.574158,370.135284   C866.056396,369.408783 862.545776,366.554352 861.367859,361.419189   C859.793518,354.555756 860.576904,351.221191 866.288208,348.450897   C873.240784,345.078491 880.680237,342.709656 888.300842,339.754791   C889.751465,331.377808 887.335266,325.427277 881.464294,324.048157   C873.211548,322.109497 869.738892,324.818512 866.237122,337.122864   C864.576233,334.988708 862.946289,333.721527 862.535950,332.138275   C862.110962,330.498352 862.207825,327.947540 863.219849,326.840881   C868.463074,321.107452 881.042969,319.282013 887.925964,322.888214   C893.623657,325.873444 894.714111,331.197968 894.721863,336.880768   C894.732483,344.704498 894.491516,352.528595 894.358887,360.831360  M888.253357,358.057983   C888.253357,353.288147 888.253357,348.518311 888.253357,342.250031   C881.455811,345.145172 875.427063,347.622681 869.499573,350.322662   C868.461121,350.795654 867.413330,352.085327 867.112183,353.198639   C865.604736,358.770966 868.308777,364.648804 872.776489,366.013519   C878.839783,367.865601 886.341797,364.441559 888.253357,358.057983  z"
   id="path16" />
<path
   fill="#0F0F0F"
   opacity="1.000000"
   stroke="none"
   d=" M813.797852,421.285889   C813.668335,428.736481 813.358826,435.725769 813.515625,442.704651   C813.574463,445.321106 814.717712,447.913208 815.366516,450.516418   C817.843872,449.707184 820.321228,448.897980 822.850281,448.071869   C822.454590,451.282623 820.234009,453.493011 816.562256,454.344147   C811.607117,455.492798 808.742920,452.891174 806.920166,448.252411   C801.471680,453.313995 795.650696,456.259888 788.247253,454.120209   C783.534424,452.758148 780.936646,449.638123 780.261475,444.960999   C779.579407,440.236176 779.356384,435.384583 784.794800,433.086334   C790.726013,430.579834 796.655884,427.758087 802.875305,426.350861   C807.320496,425.345062 808.022644,423.469238 807.749756,419.640198   C807.047546,409.788788 800.257629,405.507996 791.174255,409.105042   C786.021912,411.145355 787.419250,415.969604 785.555237,420.914520   C784.057495,419.484131 782.228516,418.552124 781.938477,417.271545   C781.491394,415.297791 781.279541,412.353424 782.399536,411.099487   C787.465271,405.427826 800.455444,403.612854 807.098877,407.230103   C812.485291,410.162933 813.572937,415.300262 813.797852,421.285889  M786.069519,442.141388   C787.215942,448.449951 789.973328,451.036804 795.405457,450.900055   C800.837280,450.763306 807.006531,447.181030 807.203125,443.619415   C807.484070,438.531464 807.274658,433.416443 807.274658,426.999939   C801.393433,429.198914 796.030273,431.075928 790.773621,433.214569   C787.260376,434.643890 785.124390,437.153625 786.069519,442.141388  z"
   id="path17" />
<path
   fill="#0D0D0D"
   opacity="1.000000"
   stroke="none"
   d=" M1054.675537,425.530151   C1057.632568,420.517181 1056.842407,415.694366 1053.924805,411.516907   C1051.089844,407.457764 1046.552002,407.692627 1042.100952,408.430481   C1035.457153,409.531799 1035.612183,414.967804 1034.623535,421.476532   C1032.611816,419.336243 1030.735596,418.216614 1030.376831,416.730652   C1029.953979,414.978973 1030.141846,412.080109 1031.281494,411.114716   C1038.158813,405.289093 1046.237061,404.141663 1054.673828,406.905853   C1060.105957,408.685638 1062.164917,413.299347 1062.239136,418.666901   C1062.351685,426.820129 1062.011353,434.980896 1062.193481,443.131104   C1062.248169,445.579529 1063.400024,448.003448 1064.049194,450.438599   C1066.538574,449.695068 1069.027954,448.951508 1071.824341,448.116272   C1070.824707,451.340454 1068.759888,453.816864 1064.793091,454.450928   C1059.992188,455.218323 1057.283325,452.724609 1055.749878,448.129395   C1050.452271,453.100342 1044.747559,456.215332 1037.312500,454.184601   C1032.600586,452.897675 1029.716431,450.023865 1029.107422,445.277039   C1028.491333,440.473816 1027.907104,435.272552 1033.733398,432.988525   C1040.491821,430.339142 1047.409180,428.095032 1054.675537,425.530151  M1053.962769,428.025482   C1049.005249,429.825256 1043.905640,431.316559 1039.131958,433.515442   C1034.750977,435.533447 1033.619751,439.407318 1035.204590,444.807404   C1036.522339,449.297272 1039.901245,451.020264 1044.332031,450.877563   C1051.996826,450.630798 1056.125732,446.547363 1056.005493,439.012695   C1055.946289,435.313324 1055.253906,431.624084 1053.962769,428.025482  z"
   id="path18" />
<path
   fill="#0C0C0C"
   opacity="1.000000"
   stroke="none"
   d=" M750.485474,454.364380   C748.977539,453.325195 747.256897,452.281677 746.633545,450.782013   C740.269470,435.472534 734.089539,420.086548 727.844788,404.727356   C726.026489,400.255280 725.218201,394.835388 718.649292,394.300751   C725.315796,394.300751 731.982239,394.300751 738.648682,394.300751   C738.700012,394.518768 738.751343,394.736786 738.802612,394.954803   C736.718750,395.568481 734.634888,396.182129 732.091003,396.931274   C738.252991,412.666565 744.329956,428.184692 750.977356,445.159637   C757.335449,428.343903 763.234985,412.740875 769.238464,396.863159   C766.635986,396.170074 764.498718,395.600861 762.361450,395.031677   C762.389587,394.786621 762.417725,394.541595 762.445801,394.296570   C767.821472,394.296570 773.197144,394.296570 778.572815,394.296570   C770.911560,395.269135 770.680481,401.975403 768.668274,407.202789   C762.652466,422.830597 756.736877,438.497009 750.485474,454.364380  z"
   id="path19" />
<path
   fill="#0E0E0E"
   opacity="1.000000"
   stroke="none"
   d=" M1119.646606,326.568726   C1120.602173,330.075317 1121.833740,333.253571 1121.960327,336.475250   C1122.241333,343.626160 1121.947266,350.798828 1121.926025,357.962738   C1121.900391,366.590637 1121.917480,366.590698 1130.181763,365.385956   C1129.034180,369.134155 1126.143188,370.744476 1122.935303,369.914612   C1120.017456,369.159698 1117.495605,366.873627 1114.182251,364.893890   C1110.720947,368.288330 1105.464478,371.078552 1098.770874,370.097504   C1093.878906,369.380554 1090.296631,367.110016 1089.020752,362.144440   C1087.154907,354.883179 1087.973755,351.278381 1093.617920,348.519531   C1100.560425,345.126038 1107.993530,342.736267 1115.686157,339.728241   C1117.111938,330.941315 1114.699341,325.209961 1108.487549,323.983215   C1100.077271,322.322296 1096.752808,325.032349 1094.006348,336.776520   C1092.433960,335.309265 1090.737183,334.451416 1090.345703,333.188873   C1089.772339,331.339569 1089.280273,328.555328 1090.236450,327.289917   C1096.243042,319.340698 1112.349121,318.939819 1119.646606,326.568726  M1107.094116,345.403961   C1104.953247,346.288239 1102.755981,347.057892 1100.682007,348.078156   C1094.292480,351.221497 1093.250244,353.524689 1094.930054,360.325317   C1095.988159,364.609283 1099.429810,366.846619 1104.397217,366.480103   C1110.470947,366.031952 1115.719116,362.372009 1115.829712,358.285522   C1115.963013,353.354126 1115.861206,348.416351 1115.861206,343.190216   C1112.968140,343.894012 1110.407593,344.516876 1107.094116,345.403961  z"
   id="path20" />
<path
   fill="#080808"
   opacity="1.000000"
   stroke="none"
   d=" M860.089111,259.355957   C860.086914,267.647156 860.085876,275.478088 860.079163,283.309052   C860.078857,283.639191 860.026733,283.969238 859.968384,284.657562   C856.613953,284.657562 853.221375,284.657562 849.507935,284.657562   C849.507935,269.356110 849.507935,253.954453 849.507935,238.230957   C852.920837,238.230957 856.328186,238.230957 859.919189,238.230957   C860.018188,239.619278 860.118103,241.019867 860.257141,242.969742   C865.474976,238.664291 870.660522,235.683441 877.763733,237.719833   C877.252319,240.752930 876.770935,243.607986 876.304016,246.377289   C865.524048,246.817184 860.333008,250.927475 860.089111,259.355957  z"
   id="path21" />
<path
   fill="#0D0D0D"
   opacity="1.000000"
   stroke="none"
   d=" M1021.996460,335.138153   C1022.356384,341.276733 1023.522888,347.163422 1022.702576,352.758881   C1021.162231,363.266510 1012.759216,370.035065 1002.690857,370.221619   C991.879456,370.421936 983.845337,364.429413 981.939209,353.339508   C980.984924,347.787567 981.253967,341.661896 982.550720,336.168915   C984.664612,327.214294 992.259033,321.630066 1000.925476,321.062134   C1010.404602,320.440918 1017.388245,324.998627 1021.996460,335.138153  M1013.780640,361.003143   C1017.859314,351.178864 1018.186829,341.289368 1013.802002,331.523407   C1011.512573,326.424500 1007.322876,323.523224 1001.607178,323.521942   C996.463013,323.520813 992.597717,326.113861 990.595337,330.748260   C986.453918,340.332977 986.090210,350.244049 990.479858,359.738403   C995.105225,369.742645 1006.705139,370.489380 1013.780640,361.003143  z"
   id="path22" />
<path
   fill="#0C0C0C"
   opacity="1.000000"
   stroke="none"
   d=" M864.980225,407.839111   C881.184631,400.674774 893.043884,410.130829 891.723022,429.212616   C886.505310,429.212616 881.241394,429.212616 875.977417,429.212616   C870.844543,429.212616 865.711609,429.212616 860.118469,429.212616   C860.194275,436.963287 860.677124,444.522797 867.876465,448.654663   C876.614563,453.669708 884.111450,449.799194 890.799316,443.093384   C889.605042,450.019562 881.961670,455.075897 873.787781,454.747833   C864.660156,454.381470 858.461548,449.731873 855.580750,441.090607   C851.218628,428.005554 854.761536,415.070923 864.980225,407.839111  M878.346680,408.706970   C867.820435,406.022186 861.177551,412.662384 860.425171,426.450439   C868.807434,426.450439 877.189148,426.450439 885.935364,426.450439   C885.998657,419.278748 885.441406,413.030334 878.346680,408.706970  z"
   id="path23" />
<path
   fill="#0C0C0C"
   opacity="1.000000"
   stroke="none"
   d=" M678.174805,454.280060   C665.532471,455.904724 657.146973,450.383148 654.897156,438.299957   C653.918030,433.041290 653.837891,427.259949 654.923584,422.043640   C657.450378,409.903534 667.061890,403.707947 678.401917,405.908020   C687.830383,407.737244 692.984070,416.808533 691.440308,429.132629   C681.184937,429.132629 670.897095,429.132629 660.077637,429.132629   C659.883850,436.526306 660.518127,443.535248 666.819702,448.047089   C674.335144,453.428070 681.617188,450.451691 688.533081,445.647217   C688.142700,449.946198 685.181824,452.390656 678.174805,454.280060  M666.962402,410.229706   C661.978516,414.584686 660.696411,420.432220 660.157227,426.232666   C668.851318,426.232666 677.346069,426.232666 685.810303,426.232666   C685.830688,410.866119 678.259888,404.355164 666.962402,410.229706  z"
   id="path24" />
<path
   fill="#0E0E0E"
   opacity="1.000000"
   stroke="none"
   d=" M720.885376,337.075378   C724.705750,326.225830 731.282959,320.936951 740.414185,321.033173   C749.877075,321.132935 755.868591,326.694336 757.516357,337.090668   C757.899170,339.505981 757.847534,341.990143 758.020935,344.858459   C747.234680,344.858459 736.830872,344.858459 726.022583,344.858459   C726.144043,352.723602 726.566467,360.363953 733.906250,364.332611   C742.523804,368.992126 750.181641,365.696259 757.053406,358.150146   C754.439453,367.771149 744.250916,372.393982 734.173279,369.532898   C727.498230,367.637787 722.817932,363.205841 721.592773,356.652130   C720.429626,350.430481 720.994507,343.885742 720.885376,337.075378  M748.158386,327.367279   C744.688660,323.298492 740.137817,322.288208 735.579529,324.407562   C728.142212,327.865540 726.904480,335.036591 726.055969,342.007263   C734.798340,342.007263 743.295288,342.007263 753.114014,342.007263   C751.406921,336.621582 750.033752,332.289307 748.158386,327.367279  z"
   id="path25" />
<path
   fill="#0A0A0A"
   opacity="1.000000"
   stroke="none"
   d=" M732.192993,282.488342   C731.546692,283.632507 730.946838,284.861938 730.250061,284.919556   C727.471436,285.149292 724.662720,285.014252 721.608643,285.014252   C721.608643,269.301697 721.608643,253.927124 721.608643,238.229462   C725.067383,238.229462 728.459045,238.229462 732.194824,238.229462   C732.194824,252.841782 732.194824,267.438446 732.192993,282.488342  z"
   id="path26" />
<path
   fill="#0F0F0F"
   opacity="1.000000"
   stroke="none"
   d=" M957.298340,441.541504   C957.137939,434.452789 955.696289,427.328735 957.420715,421.078125   C961.395386,406.670776 979.360779,400.794037 991.005676,409.025879   C994.209656,411.290771 993.432251,413.900177 992.209229,416.425232   C991.444275,418.004486 989.731628,419.124664 988.208496,420.693756   C987.336975,419.283722 987.191162,419.150421 987.171082,419.000366   C986.624451,414.906189 987.790527,410.108490 981.805908,408.611359   C976.210693,407.211639 970.265686,408.844177 966.658386,413.643738   C961.831177,420.066437 961.270691,427.576294 962.314331,435.104767   C964.374268,449.965302 978.254578,455.297882 990.123596,446.011536   C991.270874,445.113922 992.362854,444.145599 993.573608,443.132233   C993.918823,447.671204 988.877258,452.500061 982.374390,454.085602   C971.408447,456.759399 962.092041,452.204712 957.298340,441.541504  z"
   id="path27" />
<path
   fill="#191919"
   opacity="1.000000"
   stroke="none"
   d=" M1142.097412,329.000000   C1142.097412,320.548676 1142.097412,312.597321 1142.097412,304.575897   C1139.581177,304.158417 1137.578247,303.826111 1135.575195,303.493774   C1135.559692,303.111938 1135.544067,302.730072 1135.528442,302.348236   C1139.593018,301.606598 1143.657471,300.864990 1148.334961,300.011505   C1148.334961,322.261078 1148.334961,344.141327 1148.334961,366.117004   C1150.900879,366.943085 1152.999634,367.618713 1155.098389,368.294342   C1155.062256,368.534210 1155.026245,368.774078 1154.990234,369.013947   C1148.642578,369.013947 1142.294922,369.013947 1135.947388,369.013947   C1135.881470,368.798828 1135.815552,368.583710 1135.749756,368.368561   C1137.714111,367.711548 1139.678345,367.054535 1142.097412,366.245453   C1142.097412,354.097412 1142.097412,341.798706 1142.097412,329.000000  z"
   id="path28" />
<path
   fill="#0B0B0B"
   opacity="1.000000"
   stroke="none"
   d=" M940.144531,334.220154   C939.753418,330.316620 940.714844,326.184265 935.983704,324.666504   C930.696899,322.970551 925.749573,323.604736 921.493835,327.323212   C913.331787,334.454681 912.682922,354.064850 920.277344,361.799225   C925.508911,367.127228 934.427856,367.651215 941.408447,362.960541   C943.282349,361.701355 945.006409,360.219116 947.094238,358.612183   C946.138733,364.061798 941.107971,368.588745 935.049133,369.899353   C921.296448,372.874207 909.982849,364.372803 908.945984,350.284668   C907.807861,334.820557 914.686462,324.119263 927.545227,321.464203   C933.551025,320.224121 939.085510,321.474274 944.195801,324.849365   C947.729248,327.183075 945.921021,330.042938 945.096863,332.811005   C944.275696,335.568909 942.568970,336.033234 940.144531,334.220154  z"
   id="path29" />
<path
   fill="#060606"
   opacity="1.000000"
   stroke="none"
   d=" M941.849792,270.991364   C941.849792,275.784637 941.849792,280.080017 941.849792,284.691650   C938.203247,284.691650 934.824402,284.691650 931.195801,284.691650   C931.195801,269.308380 931.195801,253.928543 931.195801,238.232178   C934.534973,238.232178 937.915710,238.232178 941.849792,238.232178   C941.849792,248.998611 941.849792,259.746033 941.849792,270.991364  z"
   id="path30" />
<path
   fill="#121212"
   opacity="1.000000"
   stroke="none"
   d=" M603.661987,371.008362   C602.441162,370.959259 601.642761,370.910156 600.844421,370.861053   C600.761719,370.563599 600.679016,370.266144 600.596375,369.968689   C602.937134,369.271606 605.277893,368.574524 607.811157,367.820129   C607.811157,349.906952 607.811157,331.941132 607.811157,313.598267   C605.477661,312.966675 603.010315,312.298859 600.542969,311.631042   C600.565186,311.387573 600.587402,311.144104 600.609619,310.900635   C607.688843,310.900635 614.768066,310.900635 621.847290,310.900635   C621.903931,311.185516 621.960510,311.470367 622.017151,311.755249   C619.747986,312.304474 617.478760,312.853729 615.043152,313.443237   C615.043152,331.507385 615.043152,349.461182 615.043152,367.841064   C617.231384,368.443909 619.539368,369.079742 621.847412,369.715546   C621.845093,370.146484 621.842834,370.577454 621.840576,371.008392   C615.921875,371.008392 610.003113,371.008392 603.661987,371.008362  z"
   id="path31" />
<path
   fill="#080808"
   opacity="1.000000"
   stroke="none"
   d=" M784.213623,324.091125   C788.729919,322.689941 792.915039,321.469574 798.520874,319.834991   C797.945068,324.476776 797.705017,327.508911 797.115234,330.471375   C796.947083,331.316040 795.763123,331.958466 795.044983,332.693604   C794.384033,331.912354 793.456421,331.230591 793.119751,330.328308   C792.494324,328.652130 792.213684,326.847260 791.798523,325.133209   C782.242004,326.239624 778.088074,330.764038 778.088074,339.783295   C778.088074,348.571716 778.088074,357.360138 778.088074,366.318085   C780.864380,367.009216 783.372437,367.633575 785.880554,368.257935   C785.860718,368.479034 785.840881,368.700104 785.821045,368.921204   C779.039246,368.921204 772.257385,368.921204 765.475586,368.921204   C765.432251,368.706299 765.388916,368.491425 765.345581,368.276520   C767.447571,367.677643 769.549561,367.078735 771.812988,366.433899   C771.812988,353.153931 771.812988,339.910095 771.812988,326.462555   C769.520752,326.075287 767.360229,325.710236 765.199768,325.345215   C765.182739,324.968536 765.165771,324.591888 765.148743,324.215210   C769.229919,323.254211 773.311096,322.293213 777.853088,321.223724   C777.853088,323.901062 777.853088,326.304962 777.853088,329.407440   C780.245667,327.369568 782.064087,325.820770 784.213623,324.091125  z"
   id="path32" />
<path
   fill="#060606"
   opacity="1.000000"
   stroke="none"
   d=" M833.916931,414.999939   C833.916931,406.177429 833.916931,397.854950 833.916931,389.146912   C831.648804,388.663147 829.452148,388.194611 827.255432,387.726074   C827.197083,387.383026 827.138733,387.039978 827.080322,386.696930   C831.225647,385.983643 835.370972,385.270325 839.880981,384.494263   C839.880981,406.681000 839.880981,428.468048 839.880981,450.585052   C842.241760,451.327972 844.436951,452.018738 846.632080,452.709534   C846.579285,452.957031 846.526489,453.204559 846.473694,453.452087   C840.179565,453.452087 833.885498,453.452087 827.591370,453.452087   C827.511292,453.252106 827.431213,453.052124 827.351135,452.852112   C829.377869,452.182831 831.404602,451.513580 833.916931,450.683929   C833.916931,439.057159 833.916931,427.278564 833.916931,414.999939  z"
   id="path33" />
<path
   fill="#0C0C0C"
   opacity="1.000000"
   stroke="none"
   d=" M698.146973,311.304596   C698.147034,314.923309 698.147034,318.079498 698.147034,321.797302   C702.148071,321.797302 706.029663,321.797302 709.911255,321.797302   C710.022888,322.456268 710.134583,323.115234 710.246216,323.774231   C706.987854,326.373413 702.490112,323.919861 698.147095,325.345978   C698.147095,330.619049 698.147095,336.204529 698.147095,341.789978   C698.147095,347.621918 698.143250,353.453888 698.148193,359.285828   C698.152954,364.923737 700.154541,367.140564 705.858765,366.935486   C708.733215,366.832184 711.572998,365.762726 714.428345,365.129364   C712.129700,369.237732 705.339539,371.380829 699.437378,369.859955   C693.931580,368.441162 692.085083,365.941315 692.084595,359.897736   C692.083618,348.415588 692.084351,336.933411 692.084351,325.113464   C689.770996,324.876343 687.637329,324.657684 685.503723,324.438995   C685.237305,324.005798 684.970886,323.572601 684.704468,323.139404   C696.403076,323.592499 692.768127,312.952026 697.368835,307.137695   C697.735718,308.884338 697.941345,309.863220 698.146973,311.304596  z"
   id="path34" />
<path
   fill="#050505"
   opacity="1.000000"
   stroke="none"
   d=" M966.980164,345.999817   C966.980164,353.129913 966.980164,359.760101 966.980164,366.414459   C969.356384,367.061890 971.398621,367.618317 973.440796,368.174744   C973.429260,368.397705 973.417664,368.620636 973.406128,368.843597   C967.062195,368.843597 960.718262,368.843597 954.374329,368.843597   C954.309753,368.638000 954.245117,368.432404 954.180542,368.226807   C956.247314,367.659607 958.314087,367.092407 960.648804,366.451691   C960.648804,353.287476 960.648804,340.048340 960.648804,326.484406   C958.481628,326.112305 956.318237,325.740875 954.154846,325.369446   C954.121338,324.992615 954.087769,324.615814 954.054260,324.239014   C958.204590,323.255188 962.354980,322.271393 966.980164,321.175018   C966.980164,329.577087 966.980164,337.538483 966.980164,345.999817  z"
   id="path35" />
<path
   fill="#0C0C0C"
   opacity="1.000000"
   stroke="none"
   d=" M1013.958801,428.999939   C1013.958801,436.478180 1013.958801,443.456421 1013.958801,450.619690   C1016.172241,451.316650 1018.258667,451.973602 1020.345154,452.630585   C1020.309631,452.884033 1020.274048,453.137482 1020.238525,453.390930   C1013.992371,453.390930 1007.746216,453.390930 1001.500061,453.390930   C1001.415100,453.205109 1001.330200,453.019287 1001.245300,452.833435   C1003.271851,452.169250 1005.298462,451.505066 1007.593140,450.753021   C1007.593140,437.606873 1007.593140,424.377777 1007.593140,410.908325   C1005.408325,410.475525 1003.231750,410.044373 1001.055176,409.613220   C1001.019348,409.252136 1000.983521,408.891052 1000.947693,408.529938   C1005.122314,407.570496 1009.296997,406.611053 1013.958801,405.539612   C1013.958801,413.568146 1013.958801,421.034088 1013.958801,428.999939  z"
   id="path36" />
<path
   fill="#0B0B0B"
   opacity="1.000000"
   stroke="none"
   d=" M729.812622,219.127350   C733.126831,221.291489 734.702271,224.321854 732.892456,227.359940   C731.669800,229.412338 728.692505,231.499557 726.459045,231.544815   C724.498535,231.584534 721.885376,229.182571 720.618347,227.187256   C718.307678,223.548355 722.824585,216.524414 729.812622,219.127350  z"
   id="path37" />
<path
   fill="#080808"
   opacity="1.000000"
   stroke="none"
   d=" M930.032959,222.908981   C931.942688,219.273209 934.856873,217.280930 938.279053,219.021469   C940.361572,220.080658 942.707764,223.042831 942.691101,225.132263   C942.674133,227.256378 940.343018,230.251556 938.245850,231.287766   C933.617310,233.574753 929.755981,229.581375 930.032959,222.908981  z"
   id="path38" />
<path
   fill="#0F0F0F"
   opacity="1.000000"
   stroke="none"
   d=" M965.150757,310.348877   C963.082642,309.741333 961.057495,309.256958 959.712341,308.028137   C959.161194,307.524658 959.646790,305.015289 960.448853,304.143890   C961.268982,303.252991 963.128174,302.763611 964.403748,302.955200   C967.694824,303.449432 968.085571,306.558624 965.150757,310.348877  z"
   id="path39" />
<path
   fill="#0F0F0F"
   opacity="1.000000"
   stroke="none"
   d=" M1008.644897,387.403503   C1012.547363,386.577332 1014.767639,388.116730 1014.079529,391.667419   C1013.815308,393.031036 1011.187683,394.859741 1009.633301,394.863281   C1006.105408,394.871277 1005.529358,391.203979 1008.644897,387.403503  z"
   id="path40" />
















</svg>
